HIERARCHY
ROOT Hip
{
   OFFSET 0.00000 0.00000 0.00000
   CHANNELS 6 Xposition Yposition Zposition Zrotation Yrotation Xrotation
   JOINT Head
   {
      OFFSET 0.000000 20.192601 0.000000
      CHANNELS 3 Zrotation Yrotation Xrotation
      End Site
      {
         OFFSET 0.000000 12.030901 0.000000
      }
      JOINT LeftShoulder
      {
         OFFSET 6.676410 0.000000 0.000000
         CHANNELS 3 Zrotation Yrotation Xrotation
         JOINT LeftHand
         {
            OFFSET 0.000000 -9.756300 0.000000
            CHANNELS 3 Zrotation Yrotation Xrotation
            End Site
            {
               OFFSET 0.000000 -10.685350 0.000000
            }
         }
      }
      JOINT RightShoulder
      {
         OFFSET -7.115520 0.000000 0.000000
         CHANNELS 3 Zrotation Yrotation Xrotation
         JOINT RghtHand
         {
            OFFSET 0.000000 -11.690050 0.000000
            CHANNELS 3 Zrotation Yrotation Xrotation
            End Site
            {
               OFFSET 0.000000 -8.007680 0.000000
            }
         }
      }
   }
   JOINT LeftHip
   {
      OFFSET 7.064605 0.000000 0.000000
      CHANNELS 3 Zrotation Yrotation Xrotation
      JOINT LeftKnee
      {
         OFFSET 0.000000 -19.913799 0.000000
         CHANNELS 3 Zrotation Yrotation Xrotation
         JOINT LeftFoot
         {
            OFFSET 0.000000 -15.183551 0.000000
            CHANNELS 3 Zrotation Yrotation Xrotation
            End Site
            {
               OFFSET 0.000000 0.000000 9.894851
            }
         }
      }
   }
   JOINT RightHip
   {
      OFFSET -7.064605 0.000000 0.000000
      CHANNELS 3 Zrotation Yrotation Xrotation
      JOINT RightKnee
      {
         OFFSET 0.000000 -18.022551 0.000000
         CHANNELS 3 Zrotation Yrotation Xrotation
         JOINT RightFoot
         {
            OFFSET 0.000000 -15.456401 0.000000
            CHANNELS 3 Zrotation Yrotation Xrotation
            End Site
            {
               OFFSET 0.000000 0.000000 9.939050
            }
         }
      }
   }
}
MOTION
Frames: 9
Frame Time: 0.016670
8.062370 39.489638 -15.322205 132.771965 84.754888 134.837633 -4.904710 18.993322 -25.107960 19.541494 -15.954480 21.332578 -9.116139 -0.565149 10.289197 -37.945065 -7.435391 41.176957 -22.795442 3.964141 41.524121 -11.912468 -59.005096 -0.592337 27.484536 -53.713017 -2.708202 10.514929 -50.697274 -5.610643 -13.099458 -42.374053 5.545221 4.788085 -49.811890 0.498384 12.437220 -43.474055 14.311286
8.059775 39.505367 -15.298705 167.759063 61.922256 170.144083 -1.909040 -5.720964 -25.543273 11.623698 -24.361039 24.616362 -11.673609 -2.213232 8.529281 -45.725282 -9.977697 42.356684 -26.476062 4.398280 37.173728 -3.236823 -68.766604 -11.116906 26.221031 -60.501406 -11.042084 11.638787 -57.844251 -6.171472 -25.261678 -50.394133 25.054121 20.395233 -53.452029 -14.008954 13.825029 -51.605689 15.591184
8.049258 39.509677 -15.287504 167.381627 62.403374 169.453933 -2.209381 -6.001647 -25.351898 7.014497 -33.721665 27.048464 -14.580418 -3.472678 6.305812 -50.088837 -14.824820 43.374310 -30.624885 5.089871 33.458877 -3.171315 -69.104330 -11.148946 25.938548 -60.626405 -11.613949 11.715990 -57.955740 -5.992533 -27.105182 -51.296312 26.620705 22.145862 -52.641193 -15.068630 13.549817 -51.723906 15.077581
8.057402 39.509377 -15.281449 167.075976 63.223940 168.791610 -2.438893 -5.462382 -25.048296 1.979270 -41.863879 30.144050 -16.761013 -4.595749 3.997799 -54.397372 -19.441732 44.679604 -34.194929 5.226525 29.621038 -3.743071 -69.253235 -10.482841 25.635264 -60.619773 -11.595240 11.681466 -57.846313 -5.893525 -28.483837 -51.835699 27.586577 22.817734 -52.075056 -15.022574 13.355574 -51.410202 14.717029
8.048131 39.506273 -15.256614 166.766964 63.809642 168.192466 -2.598311 -4.861820 -24.765593 -3.180609 -48.455848 33.859300 -18.276562 -5.518946 1.695811 -58.573325 -23.742180 46.332308 -37.216174 4.960863 25.933583 -4.095169 -69.379982 -10.053377 25.423159 -60.588539 -11.659810 11.619410 -57.743177 -5.833594 -29.883898 -52.405367 28.626107 23.505157 -51.493937 -14.943890 13.154903 -51.084696 14.371367
8.037140 39.503559 -15.222252 166.481831 64.257996 167.626899 -2.801847 -4.248215 -24.476594 -8.313238 -53.287592 37.931319 -19.213081 -6.209272 -0.429374 -62.616811 -27.637635 48.175407 -39.718838 4.423554 22.509986 -4.395960 -69.474041 -9.666662 25.197934 -60.562181 -11.716354 11.571138 -57.645895 -5.762488 -31.384965 -52.966228 29.799060 24.203887 -50.897514 -14.788505 12.948549 -50.740092 14.039480
8.022581 39.495971 -15.178073 166.240029 64.619648 167.085319 -2.958707 -3.556826 -24.132406 -13.106657 -56.660797 41.974801 -19.762305 -6.659012 -2.270575 -66.493831 -31.036137 50.196119 -41.683094 3.700854 19.439576 -4.724775 -69.513670 -9.260428 24.954593 -60.552625 -11.690776 11.511914 -57.553250 -5.706633 -33.003331 -53.517920 31.129325 24.974534 -50.253936 -14.599575 12.697235 -50.365207 13.676668
7.999348 39.493479 -15.114796 166.029673 64.875275 166.616632 -3.075504 -2.859908 -23.789045 -17.435975 -58.980575 45.812005 -20.123884 -6.890452 -3.815669 -70.122062 -33.983149 52.308369 -43.196886 2.892638 16.783472 -4.899997 -69.534502 -8.993442 24.747054 -60.551171 -11.704417 11.465056 -57.481902 -5.645689 -34.681150 -54.134939 32.522601 25.609067 -49.641098 -14.246118 12.495566 -49.950819 13.398973
7.992434 39.486858 -15.061443 165.771833 65.378598 166.026954 -3.172741 -1.908827 -23.300383 -21.324677 -60.523201 49.361497 -20.335097 -6.928455 -5.187336 -73.462776 -36.538203 54.364191 -44.365084 2.073653 14.484031 -5.564515 -69.544624 -8.194934 24.531507 -60.439306 -11.459028 11.357697 -57.259125 -5.618468 -36.439773 -54.644508 33.951204 26.126582 -48.965476 -13.679608 12.258032 -49.401645 13.103242
